<?xml version="1.0" encoding="UTF-8"?><svg id="Capa_2" xmlns="http://www.w3.org/2000/svg" viewBox="0 0 122.39 100.04"><defs><style>.cls-1{fill:#5d184c;}</style></defs><g id="Capa_1-2"><g><path class="cls-1" d="M121.12,97.97c-2.28-.04-4.56-.01-6.84-.02-.44,0-.89-.03-1.46-.06v-1.61c-.01-7.04,.08-14.09-.06-21.13-.11-5.8-4.4-10.5-10.11-11.41-.73-.12-1.47-.21-2.28-.32v-1.46c0-5.31,.01-10.63,0-15.94-.02-5.92-3.94-9.83-9.82-9.85h-4.63c.52-3.78,1.01-7.39,1.53-11.21,1.03,.81,1.85,1.52,2.75,2.13,.52,.34,1.16,.5,1.75,.74,.21-.59,.54-1.17,.59-1.77,.13-1.26,.15-2.53,.13-3.79-.02-.78,.27-1.24,.92-1.63,1.18-.72,2.35-1.49,3.47-2.32,.35-.26,.75-.8,.7-1.17-.04-.35-.56-.79-.96-.95-1.25-.51-2.53-.94-3.82-1.32-.85-.25-1.33-.69-1.52-1.6-.26-1.27-.62-2.54-1.05-3.77-.15-.45-.56-.99-.96-1.11-.31-.09-.9,.33-1.19,.68-.88,1.07-1.63,2.25-2.55,3.3-.36,.4-1.01,.74-1.53,.75-1.47,.05-2.95-.13-4.43-.12-.43,0-1.02,.25-1.24,.59-.17,.26,.02,.9,.24,1.24,.75,1.18,1.54,2.33,2.4,3.42,.54,.69,.58,1.3,.24,2.08-.52,1.19-1,2.42-1.39,3.66-.15,.46-.21,1.2,.05,1.47,.27,.28,1.01,.27,1.48,.15,1.26-.29,2.48-.71,3.89-1.14-.52,4-1.01,7.82-1.51,11.59h-13.73c5.36-4.24,7.42-9.53,5.04-15.86-2.41-6.43-7.69-8.77-14.33-8.56,.03-.63,.05-1.08,.08-1.62h10.85c1.74,0,1.94-.21,1.94-1.98V1.85c-.01-1.67-.18-1.85-1.79-1.85h-20.37c-1.53,0-1.77,.23-1.77,1.75V20.61c0,1.54,.27,1.8,1.87,1.8,2.82,.01,5.65-.01,8.47,.01,1.79,.01,2.85,.97,2.84,2.5,0,1.54-1.06,2.47-2.87,2.48-2.78,.02-5.56,0-8.35,.01-1.73,0-1.96,.22-1.96,1.96v6.73h-11.45c-.54-3.84-1.06-7.64-1.61-11.6,1.51,.46,2.74,.89,4.01,1.19,.43,.11,1.12,.09,1.37-.18,.24-.26,.21-.95,.07-1.38-.44-1.36-1.05-2.66-1.46-4.03-.15-.47-.07-1.16,.19-1.58,.76-1.26,1.7-2.41,2.48-3.66,.24-.37,.4-1.03,.22-1.33-.19-.32-.83-.51-1.28-.52-1.3,0-2.62,.05-3.92,.17-.89,.09-1.48-.17-1.99-.94-.74-1.13-1.57-2.2-2.44-3.23-.28-.33-.83-.64-1.23-.61-.3,.03-.68,.57-.81,.96-.45,1.4-.75,2.85-1.24,4.24-.17,.46-.65,.96-1.11,1.15-1.35,.57-2.79,.95-4.15,1.5-.4,.16-.86,.61-.94,.99-.06,.31,.33,.84,.66,1.08,1.19,.86,2.48,1.6,3.65,2.49,.4,.3,.73,.91,.78,1.41,.13,1.42,.05,2.86,.16,4.29,.04,.48,.29,1.11,.64,1.32,.27,.17,.94-.13,1.31-.4,1.01-.73,1.96-1.55,3.1-2.47,.54,3.82,1.04,7.43,1.56,11.2-1.65,0-3.16-.01-4.67,0-5.9,.03-9.79,3.94-9.81,9.86-.01,5.36,0,10.71,0,16.07v1.39c-1.09,.15-2.06,.22-3,.44-5.73,1.33-9.41,6.02-9.45,12.14-.04,6.79-.01,13.58-.01,20.37v1.56c-2.7,0-5.18-.04-7.66,.03-.61,.02-1.2,.39-1.8,.6,.18,.46,.27,1,.5,1.42H121.81c.08-.11,.17-.22,.25-.33,.7-.91,.25-1.72-.94-1.74ZM23.87,53.29c-.04-1.06,.22-1.68,1.18-2.28,1.54-.96,3.07-1.71,4.91-1.76,2.07-.07,3.89,.56,5.51,1.83,3.56,2.8,6.88,2.81,10.46,.03,3.26-2.54,7.23-2.54,10.49,0,3.56,2.78,6.87,2.77,10.46-.03,3.17-2.49,7.21-2.49,10.38-.01,3.63,2.83,6.9,2.83,10.57,0,2.93-2.26,6.87-2.43,9.77-.36,.36,.26,.76,.76,.77,1.15,.06,3.84,.03,7.67,.03,11.66H23.89v-2.89c0-2.44,.05-4.89-.02-7.33Zm58.56-29.9c.41-1.16,.68-2.12,1.1-3.01,.46-.99,.41-1.81-.31-2.66-.61-.73-1.09-1.57-1.76-2.55,1.33,0,2.44,.1,3.53-.03,.63-.08,1.34-.41,1.77-.85,.76-.77,1.34-1.72,2.16-2.8,.35,1.23,.69,2.24,.92,3.27,.21,.91,.66,1.46,1.6,1.71,1.01,.26,1.98,.68,3.23,1.12-1.06,.72-1.87,1.32-2.74,1.82-.85,.49-1.28,1.11-1.19,2.14,.08,1,.02,2.01,.02,3.43-1.04-.81-1.85-1.36-2.56-2.01-.81-.73-1.63-.89-2.66-.5-.92,.35-1.9,.57-3.11,.92Zm-30.57,6.77c0-.27,.62-.73,.96-.74,2.48-.06,4.97-.01,7.46-.04,3.28-.04,5.38-2.57,4.64-5.57-.46-1.91-2.06-3.29-4.08-3.34-2.66-.07-5.31-.04-7.97-.03-.7,.01-1.08-.13-1.08-.96,.03-5.65,.02-11.3,.03-16.94,0-.13,.05-.25,.09-.47h19.81v5.98h-1.77c-3.16,0-6.33,.03-9.49-.01-1.07-.01-1.56,.41-1.52,1.49,.03,.92,.01,1.85,0,2.78-.01,.95,.43,1.34,1.39,1.38,1.63,.05,3.31,0,4.89,.35,5.42,1.23,8.86,5.98,8.62,11.65-.23,5.14-4.26,9.73-9.63,10.25-4.03,.38-8.14,.07-12.4,.07,0-1.99-.04-3.93,.05-5.85Zm-17.63-7.33c-.75,.66-1.57,1.24-2.67,2.1,0-1.04-.09-1.79,.02-2.5,.25-1.7-.42-2.8-1.94-3.51-.64-.3-1.18-.78-1.99-1.33,1.25-.44,2.27-.86,3.33-1.16,.84-.23,1.26-.73,1.45-1.54,.26-1.06,.58-2.1,.94-3.39,.74,.97,1.42,1.74,1.97,2.6,.54,.84,1.19,1.18,2.2,1.09,1-.1,2.01-.02,3.31-.02-.7,1-1.27,1.9-1.93,2.74-.57,.71-.63,1.39-.26,2.21,.43,.96,.76,1.96,1.25,3.24-1.27-.38-2.27-.64-3.25-.99-.93-.34-1.69-.21-2.43,.46Zm-10.03,20.69c.7-3.16,3.62-5.36,6.84-5.36,20.04-.02,40.07-.03,60.11,0,3.95,0,7.13,3.2,7.23,7.15,.03,1.08,.01,2.16,.01,2.97-2.04-.35-3.99-.88-5.96-.98-2.21-.1-4.16,.88-5.9,2.24-2.87,2.24-5.19,2.23-8.01,.01-3.97-3.15-8.98-3.14-12.92,0-2.78,2.22-5.21,2.21-8-.01-3.96-3.16-9.03-3.12-13.03,.1-2.54,2.04-5.09,2.08-7.61,.13-4.08-3.16-8.08-3.38-12.54-.7-.1,.06-.21,.1-.67,.3,.14-2.11,.04-4.04,.45-5.85Zm-12.51,30.23c1.06-4.92,5.26-8.16,10.3-8.13,13.12,.07,26.23,.02,39.35,.02h0c12.99,.01,25.98,0,38.96,.01,5.27,.01,9.18,3.06,10.36,7.92,.25,1.04,.08,1.85-.62,2.67-4.37,5.08-9.89,7.33-16.47,6.14-6.78-1.23-11.27-5.37-13.47-11.93-.05-.16-.05-.36-.15-.48-.33-.38-.7-.73-1.05-1.09-.35,.36-.88,.67-1.02,1.1-.77,2.44-1.84,4.71-3.55,6.63-4.36,4.9-9.82,6.96-16.25,5.75-6.57-1.23-10.97-5.22-13.23-11.54-.27-.74-.18-1.9-1.31-1.91-1.14,0-1.05,1.16-1.32,1.9-2.3,6.43-6.79,10.45-13.47,11.6-6.65,1.15-12.18-1.15-16.5-6.35-.58-.7-.75-1.38-.56-2.31Zm99.08,24.13H11.53v-19.43c4.9,4.86,10.64,7.03,17.33,5.92,6.7-1.12,11.47-4.98,14.54-11.26,3.73,7.32,9.51,11.52,17.66,11.54,8.18,.03,14.01-4.09,17.81-11.53,3.03,6.14,7.73,10.07,14.4,11.22,6.71,1.16,12.46-.95,17.5-5.91v19.45Z"/><path class="cls-1" d="M97.58,92.71c-.26-.22-.96-.57-.93-.83,.05-.44,.49-1.04,.91-1.2,.93-.36,1.94-.6,2.94-.67,.44-.03,.93,.45,1.39,.7-.32,.41-.56,1.03-.98,1.19-.97,.37-2.03,.51-3.34,.81Z"/><path class="cls-1" d="M16.18,85.8c.06,.02,.28,.03,.36,.13,.84,1.14,1.7,2.27,2.45,3.47,.12,.19-.19,.86-.46,1.01-.27,.15-.92,.07-1.11-.16-.8-.96-1.56-1.97-2.21-3.04-.41-.67,.12-1.42,.96-1.41Z"/><path class="cls-1" d="M29.33,93.54c-.77-.04-1.3-.84-.9-1.37,.82-1.06,1.74-2.05,2.7-2.99,.18-.17,.84-.06,1.12,.15,.21,.16,.36,.82,.22,.99-.87,1.07-1.83,2.07-2.77,3.08-.1,.11-.31,.11-.37,.13Z"/><path class="cls-1" d="M76.03,88.28c-.83-.13-1.3-.73-.89-1.31,.81-1.14,1.84-2.13,2.85-3.12,.14-.14,.77,.02,.98,.23,.21,.21,.36,.8,.22,.98-.86,1.07-1.8,2.07-2.73,3.08-.1,.1-.31,.11-.43,.14Z"/><path class="cls-1" d="M45.74,86.66c-.21,.9-.66,1.3-1.4,.98-1.08-.47-2.15-.99-3.13-1.63-.29-.19-.47-.89-.37-1.25,.07-.25,.83-.55,1.12-.43,1.13,.45,2.2,1.04,3.27,1.63,.25,.14,.37,.51,.5,.7Z"/><path class="cls-1" d="M68,90.37c.54,0,1.14-.13,1.62,.04,.42,.15,.72,.65,1.08,1-.38,.31-.74,.85-1.13,.88-1.08,.07-2.18,0-3.25-.19-.4-.07-.72-.63-1.07-.97,.42-.32,.8-.77,1.27-.91,.45-.14,.99,.05,1.49,.09v.06Z"/><path class="cls-1" d="M90.32,92.55c-.32,.43-.49,.88-.76,.95-.34,.1-.93,.03-1.12-.21-.78-.94-1.49-1.94-2.12-2.98-.16-.26-.04-.85,.17-1.13,.16-.21,.86-.34,.97-.21,.98,1.13,1.88,2.33,2.85,3.57Z"/></g></g></svg>