<?xml version="1.0" encoding="UTF-8"?><svg id="Capa_2" xmlns="http://www.w3.org/2000/svg" viewBox="0 0 109.71 70.8"><defs><style>.cls-1{fill:#5d184c;}</style></defs><g id="Capa_1-2"><g><path class="cls-1" d="M109.71,35.12c0-1.37-.35-1.99-1.72-2.37-12.17-3.39-24.32-6.84-36.48-10.29-4.73-1.34-9.47-2.68-14.28-4.04,.24-.57,.45-1.04,.65-1.51,.9-2.15,1.12-4.37,.8-6.67-.13-.98-.63-1.43-1.55-1.64-5.3-1.28-10.71,1.01-13.48,5.73-.19,.31-.39,.63-.68,1.09-.17-.65-.28-1.1-.4-1.55C39.88,3.87,29.51-2.06,19.58,.66c-.98,.27-1.57,.73-1.58,1.75-.02,2.6,0,5.2,0,8.01-.45,.12-1.02,.3-1.6,.46-5.09,1.5-9.37,4.02-11.65,9.11-.12,.27-.49,.44-.72,.67-.95,.98-2.22,1.81-2.77,2.98-1.71,3.67-1.69,7.44,.32,11.05,.38,.68,.46,1.13,.05,1.86-2.16,3.93-2.15,7.93,0,11.86,.36,.66,.38,1.08,.02,1.75-2.18,3.93-2.17,7.93-.04,11.86,.39,.74,.3,1.16-.03,1.86-.24,.49-.53,.8-.88,1.02-.39,.66-.53,1.14-.41,2.21,0,0,.03,0,.04,0,.35,.78,.55,1.39,.88,1.93,.66,1.1,1.73,1.61,2.98,1.71,.03,0,.05,0,.08,0,.52,.04,1.05,.03,1.57,.03H107.03c.6,0,1.08,0,1.43-.04,.89-.08,1.14-.35,1.2-1.29v-6.11c0-.14-.02-.31-.02-.48,.06-9.26,0-18.51,.06-27.76ZM54.12,10.33c2.6-.02,2.9,.31,2.61,2.84-.66,5.8-5.55,9.69-11.33,9.12-1.23-.12-1.37-.74-1.41-1.69-.19-5.58,4.4-10.24,10.13-10.27ZM19.81,3.91c.11-.9,.46-1.3,1.41-1.51C31.37,.21,41.11,8.13,41.13,18.62q0,3.33-3.32,3.67c-10.32,1.01-19.25-8.12-18-18.38Zm-1.18,8.52c1.21,1.86,2.15,3.77,3.5,5.33,4.94,5.72,11.24,7.66,18.61,6.11,.95-.19,1.76-.2,2.73,.06,4.32,1.14,8.22,.16,11.52-2.86,.69-.63,1.22-.83,2.15-.56,13.37,3.8,26.75,7.55,40.13,11.32,.37,.11,.72,.23,1.08,.34-.03,.07-.05,.15-.08,.22-5.4-.28-10.8-.55-16.2-.85-7.27-.38-14.55-.81-21.82-1.2-12.59-.67-25.19-1.35-37.78-2.02-2.31-.12-4.62-.25-6.93-.34-2.75-.1-4.63-1.4-5.89-3.86-.67-1.31-1.71-2.43-2.76-3.88,2.33-4.68,6.84-6.62,11.74-7.8ZM2.74,66.31c.3-.84,.8-1.64,1.37-2.33,.61-.74,.71-1.28,.03-2.03-2.62-2.92-2.64-8.74-.04-11.63,.73-.8,.63-1.35-.05-2.11-2.52-2.82-2.48-8.75,.06-11.54,.67-.74,.69-1.27,.03-2.01-2.36-2.64-2.59-8.15-.52-11.03,1.09-1.51,2.4-1.53,3.48,0,.37,.53,.62,1.15,.93,1.72,1.5,2.93,3.9,4.48,7.2,4.66,12.24,.66,24.49,1.35,36.74,2.01,8.8,.48,17.6,.93,26.42,1.4,9.67,.52,19.35,1.05,29.17,1.59v29.37c-.54,0-1.01,.02-1.48,0-15.53-.49-31.07-.99-46.6-1.48-12.04-.38-24.09-.76-36.13-1.14-2.88-.09-5.77-.18-8.64-.26-2.6-.08-4.13-1.59-4.14-4.22-.02-7.99,0-15.98,0-23.97,0-.85,.24-2.03-.99-2.06-1.4-.03-1.04,1.25-1.04,2.09-.03,7.81-.02,15.64,0,23.45,0,4.42,2.21,6.62,6.65,6.76,20.82,.65,41.63,1.33,62.44,1.99,9.52,.3,19.03,.58,28.54,.87,.43,0,.86,.04,1.39,.07v2.25H5.52c-.39,0-.79,.02-1.17-.03-1.36-.17-2.06-1.13-1.61-2.4Z"/><path class="cls-1" d="M93.64,53.82c-.47-.72-.96-1.14-.91-1.48,.06-.37,.61-.67,.94-1,.33,.34,.88,.65,.93,1.02,.04,.34-.46,.75-.96,1.46Z"/><path class="cls-1" d="M56.94,43.49c-.44-.71-.92-1.14-.87-1.49,.05-.35,.65-.88,.98-.87,.33,.02,.87,.61,.89,.96,.02,.36-.5,.74-.99,1.4Z"/><path class="cls-1" d="M50.39,53.83c-.47-.73-.95-1.15-.89-1.49,.06-.38,.6-.68,.93-1.01,.33,.34,.88,.66,.93,1.03,.04,.34-.46,.75-.97,1.46Z"/><path class="cls-1" d="M35.24,55.88c-.74,.42-1.18,.87-1.51,.81-.37-.07-.64-.62-.95-.97,.35-.32,.68-.86,1.06-.9,.33-.03,.72,.51,1.4,1.05Z"/><path class="cls-1" d="M23.7,39.15c-.72,.5-1.13,1.01-1.46,.96-.38-.05-.68-.61-1.02-.95,.34-.33,.64-.87,1.02-.93,.34-.05,.75,.44,1.46,.91Z"/><path class="cls-1" d="M23.24,51.22c-.51-.69-1.03-1.08-1-1.41,.03-.38,.56-.71,.87-1.07,.35,.32,.92,.59,1,.97,.07,.33-.42,.77-.87,1.51Z"/><path class="cls-1" d="M65.75,53.17c.74-.43,1.17-.88,1.52-.82,.36,.06,.64,.61,.95,.95-.35,.31-.68,.85-1.04,.88-.35,.02-.74-.48-1.44-1Z"/><path class="cls-1" d="M81.12,56.46c.44,.72,.92,1.16,.86,1.5-.07,.36-.65,.86-1.01,.86-.3,0-.83-.61-.85-.97-.02-.35,.49-.72,.99-1.39Z"/><path class="cls-1" d="M45.26,43.59c-.73,.44-1.15,.91-1.5,.85-.35-.05-.63-.61-.94-.95,.34-.31,.66-.84,1.02-.86,.35-.03,.73,.46,1.42,.96Z"/><path class="cls-1" d="M80.01,43.59c-.76,.45-1.19,.9-1.53,.84-.37-.07-.65-.61-.97-.95,.35-.31,.68-.82,1.06-.86,.34-.03,.73,.46,1.45,.96Z"/><path class="cls-1" d="M20.29,19.65c-.41,.16-.91,.23-1.22,.5-1.33,1.16-2.58,2.42-3.93,3.57-.38,.33-1.11,.66-1.48,.51-.76-.31-.7-1.11-.17-1.62,1.51-1.47,3.04-2.95,4.67-4.27,.76-.62,1.68-.06,1.63,.81,.17,.17,.33,.33,.5,.5Z"/><path class="cls-1" d="M108.47,70.76c-.36,.04-.83,.04-1.43,.04H5.83c-.52,0-1.04,.02-1.57-.03-.03,0-.05,0-.08,0H108.47Z"/></g></g></svg>