<?xml version="1.0" encoding="UTF-8"?><svg id="Capa_2" xmlns="http://www.w3.org/2000/svg" viewBox="0 0 117.39 62.86"><defs><style>.cls-1{fill:#5d184c;}</style></defs><g id="Capa_1-2"><g><path class="cls-1" d="M23.8,62.86c-2.21,0-3.72-.87-4.61-2.67-1.06-2.14-1.97-4.43-2.85-6.64-.22-.56-.45-1.12-.67-1.68-1.04-2.58-2.07-5.2-3.07-7.74-.43-1.1-.86-2.2-1.29-3.29l-.41-1.05-1.13,.05c-.51,.03-1,.07-1.48,.11-.64,.06-1.25,.11-1.83,.11-.29,0-.54-.01-.78-.04-2.65-.31-4.8-2.2-5.46-4.82-.68-2.67,.27-5.36,2.49-7.02,2.14-1.6,4.46-2.66,6.9-3.14,1.3-.26,2.22-.91,2.99-2.11,5.36-8.35,13.06-14.52,22.9-18.34C43.36,1.55,51.25,0,58.94,0c9.51,0,18.98,2.37,28.16,7.04,7.51,3.82,13.57,9.31,17.99,16.31,.58,.92,1.66,1.46,2.41,1.64,2.6,.63,4.65,1.47,6.44,2.63,1.67,1.08,2.8,2.65,3.45,4.79v2.1s0,.01,0,.02c-.08,.21-.16,.45-.23,.71-.82,2.95-3.41,4.93-6.43,4.93-.58,0-1.17-.08-1.75-.23l-2.2-.58-.54,1.22c-.05,.12-.11,.23-.16,.35-.12,.27-.25,.55-.37,.86-.65,1.64-1.29,3.27-1.94,4.91-1.38,3.51-2.82,7.14-4.24,10.71-.48,1.19-.93,2.12-1.42,2.94-1.03,1.72-2.46,2.51-4.49,2.51-11.64-.01-23.27-.02-34.91-.02s-23.27,0-34.9,.02h-.01Zm-11.41-23.45l.75,1.91c.32,.81,.63,1.62,.95,2.42l1.99,5.01c1.23,3.1,2.46,6.19,3.68,9.29,.9,2.27,2.45,3.32,4.88,3.32,11.25-.04,22.74-.05,34.17-.05s22.46,.02,33.77,.05c2.57,0,4.16-1.06,5.04-3.33,.71-1.85,1.46-3.72,2.19-5.53,.41-1.03,.82-2.05,1.23-3.08,.85-2.14,1.69-4.29,2.58-6.53l2.32-5.89c.8,.31,1.59,.67,2.32,1.01,.82,.38,1.67,.57,2.51,.57,1.67,0,3.18-.78,4.14-2.14,1.52-2.14,1.2-4.92-.78-6.75-.56-.52-1.19-.97-1.84-1.32-2.84-1.54-5.93-2.32-9.18-2.32-.88,0-1.78,.06-2.69,.17-2.9,.36-5.31,1.73-7.52,3.1-1.58,.98-3,1.46-4.34,1.46-.53,0-1.05-.08-1.56-.22-1.31-.38-2.74-1.05-4.38-2.05-2.69-1.65-5.65-2.45-9.05-2.45-.94,0-1.93,.06-2.95,.19-2.82,.34-5.07,1.61-7.51,3.11-1.56,.96-2.97,1.43-4.32,1.43-.54,0-1.08-.08-1.6-.23-1.29-.38-2.69-1.03-4.26-2.01-2.71-1.67-5.68-2.49-9.09-2.49-.96,0-1.98,.07-3.02,.2-2.8,.35-5.1,1.65-7.4,3.07-1.58,.98-3.01,1.45-4.35,1.45-.52,0-1.05-.07-1.56-.22-1.59-.46-3.13-1.31-4.29-2-2.76-1.64-5.62-2.51-8.27-2.51-.13,0-.27,0-.4,0h-.19c-4.2,0-7.7,1.09-10.72,3.35-2.21,1.65-2.76,4.51-1.32,6.81,.93,1.49,2.55,2.37,4.31,2.37,.82,0,1.62-.19,2.37-.56,.3-.15,.56-.3,.81-.45,.1-.06,.2-.12,.3-.17,1.31-.74,2.63-1.12,3.92-1.12,1.23,0,2.5,.34,3.77,1,.33,.17,.67,.39,1.03,.61,.61,.39,1.24,.78,1.98,1.08l.45,.18c1.61,.65,3.28,1.32,5.07,1.61,.98,.16,1.96,.24,2.92,.24,3.41,0,6.65-1.03,9.64-3.05,1.65-1.12,3.27-1.67,4.95-1.67,.26,0,.52,.01,.78,.04,1.68,.16,3.13,.99,4.71,1.98,2.31,1.43,4.55,2.26,6.87,2.53,.85,.1,1.69,.15,2.5,.15,3.62,0,6.94-1.01,9.88-3,1.69-1.14,3.32-1.7,4.99-1.7,.21,0,.43,0,.64,.03,1.59,.13,2.99,.83,4.61,1.84,2.48,1.55,4.72,2.4,7.07,2.68,.86,.1,1.71,.15,2.54,.15,3.64,0,6.99-1.02,9.96-3.03,1.7-1.15,3.13-1.69,4.5-1.69,.32,0,.64,.03,.96,.09,.64,.12,1.3,.33,1.95,.57l-2.87,.83c-.26,.08-.5,.13-.72,.19-.52,.13-1.02,.25-1.52,.5-.96,.47-1.87,1.01-2.75,1.54l-.13,.08c-2.75,1.64-5.81,2.44-9.35,2.44-.56,0-1.13-.02-1.72-.06-3.16-.22-6.11-1.24-8.76-3.05-1.48-1.01-2.98-1.52-4.45-1.52s-3,.53-4.43,1.58c-.14,.1-.33,.21-.53,.32l-.12,.07c-3.25,1.83-6.54,2.75-9.76,2.75-3.24,0-6.55-.94-9.83-2.8-.24-.14-.48-.27-.71-.41-.51-.3-1.04-.6-1.59-.89-.89-.46-1.81-.69-2.74-.69s-1.87,.24-2.77,.71c-.64,.34-1.27,.7-1.87,1.06-.31,.18-.62,.36-.93,.54-2.86,1.63-5.9,2.45-9.04,2.45-1.9,0-3.87-.3-5.87-.9-1.2-.36-2.36-.98-3.59-1.65-.64-.35-1.31-.71-2-1.03-.65-.31-1.3-.58-1.93-.84-.28-.11-.56-.23-.83-.35l-1.22-.52-1.36,2.11Zm31.45-14.89c3.99,0,7.42,1.03,10.49,3.14,1.44,.99,2.91,1.5,4.37,1.5s2.94-.51,4.38-1.51c1.08-.75,2.14-1.32,3.17-1.71,2.57-.97,5.1-1.47,7.52-1.47,3.6,0,7.09,1.09,10.37,3.25,1.46,.96,2.87,1.42,4.3,1.42s2.86-.48,4.3-1.46c2.15-1.46,4.27-2.37,6.49-2.78,.45-.08,.9-.16,1.4-.25l3.25-.58-1.53-2.04c-.14-.19-.27-.36-.39-.52-.24-.33-.45-.6-.66-.87-3.72-4.77-8.43-8.73-13.98-11.77-8.75-4.79-18.27-7.22-28.3-7.22-2.42,0-4.9,.14-7.39,.42-10.2,1.14-19.33,4.63-27.12,10.37-3.78,2.79-6.91,5.97-9.56,9.72l-1.57,2.22,2.71,.25c3.18,.29,5.69,1.14,7.69,2.59,1.72,1.25,3.39,1.85,5.12,1.85h0c1.75,0,3.49-.63,5.32-1.92,2.15-1.52,4.82-2.36,8.15-2.57,.5-.03,.99-.05,1.47-.05Z"/><path class="cls-1" d="M58.35,15.92c-.45,0-.73-.27-.74-.74-.05-1.57-.05-3.15,0-4.72,.02-.46,.39-.75,.73-.75,.43,.01,.73,.33,.75,.79,.03,.52,.02,1.06,.01,1.62,0,.26,0,.51,0,.77,0,.26,0,.51,0,.77,0,.52,.01,1.02-.01,1.5-.01,.28-.13,.74-.72,.76h-.02Z"/><path class="cls-1" d="M42.91,15.26c-.19-.13-.44-.31-.54-.42-.05-.22-.02-.66,.07-.82,.97-1.25,2.27-2.43,3.41-3.46,.13-.12,.26-.17,.4-.17,.18,0,.37,.09,.53,.25,.18,.18,.41,.57,.1,.91-1.24,1.37-2.58,2.63-3.61,3.59-.07,.03-.23,.09-.37,.13Z"/><path class="cls-1" d="M73.75,15.25c-.27-.14-.5-.26-.61-.36-1.1-1-2.13-2.06-3.09-3.07-.64-.67-.29-1.02-.14-1.17,.16-.17,.33-.25,.49-.25,.22,0,.48,.14,.73,.38,1.19,1.15,2.23,2.19,3.18,3.2,.36,.38,.22,.58,.18,.65-.12,.18-.42,.4-.73,.62Z"/></g></g></svg>