<?xml version="1.0" encoding="UTF-8"?><svg id="Capa_2" xmlns="http://www.w3.org/2000/svg" viewBox="0 0 119.31 101.07"><defs><style>.cls-1{fill:#5d184c;}</style></defs><g id="Capa_1-2"><g><path class="cls-1" d="M119.28,99.9c-.12-.22-.75-.44-1.31-.46-.78-.03-1.61-.04-2.7-.04h-1.45c-.49,.01-.98,.01-1.47,.01h-.43c-.28,0-.55-.02-.87-.04-.15-.01-.32-.02-.49-.03l-.32-.02v-2.04c-.01-2.15,0-4.31,0-6.47,.02-4.91,.03-10-.1-14.99-.13-5.44-4.79-10.16-10.37-10.53-1.25-.09-1.49-.67-1.48-1.64,.03-5.85,.02-11.7,.01-17.68v-.05c0-.8-.01-1.63-.16-2.4-.86-4.2-4.2-7-8.53-7.13-.55-.01-1.15-.02-1.87-.02-.51,0-1.04,0-1.57,.01-.55,0-1.1,.01-1.67,.01h-.34v-1.75c0-1.5,0-2.92,0-4.33,.01-.28,.16-.76,.48-.93,1.7-.89,2.61-2.37,2.78-4.53l.03-.41,.4,.11c1.28,.38,2.31,.57,3.15,.57,1.35,0,2.21-.46,2.81-1.5,1.46-2.53-.03-4.18-1.97-5.92l-.27-.24,.27-.26c2.41-2.24,3.06-4.02,2.11-5.76-.61-1.1-1.57-1.61-3.03-1.61-.84,0-1.84,.17-3.07,.51l-.36,.1-.06-.37c-.49-2.81-1.29-4.57-3.78-4.65-.06-.01-.12-.01-.18-.01-2.7,0-3.45,2.13-3.86,4.42l-.06,.32-.32-.04c-.69-.1-1.37-.2-2.05-.29-1.53-.23-2.97-.44-4.44-.54-.76-.04-1.58-.07-2.58-.07-.68,0-1.35,.01-2.03,.02-.69,.01-1.38,.02-2.07,.02h-.28l-.15-.85c-.07-.37-.13-.7-.18-1.03-.37-2.3-1.35-4.2-2.89-5.65-.74-.69-1.84-1.72-2.64-1.72h-.07c-.99,.08-1.27,1.34-1.49,2.73-.21,1.38-.27,2.78-.33,4.26-.03,.65-.06,1.3-.1,1.97l-.02,.32h-1.38c-.99,0-1.97,.01-2.95,.02s-1.97,.02-2.95,.02c-1.38,0-2.52-.02-3.59-.06-.15-.01-.3-.01-.45-.01-2.71,0-5.15,.98-6.87,2.77-1.74,1.81-2.63,4.34-2.52,7.12,.13,3.24,.09,6.53,.05,9.72-.01,1.1-.02,2.2-.03,3.3,0,.31,.02,.63,.04,.98,.06,1.09,.13,2.21-.45,2.86-.36,.41-1.01,.46-1.53,.46-.31,0-.65-.02-.98-.04-.32-.02-.65-.04-.94-.04h-.28c-.29,.02-.59,.03-.89,.04-.77,.02-1.57,.04-2.31,.22-4.09,.96-6.7,4.33-6.8,8.79-.03,1.22-.02,2.43-.02,3.7,.01,.59,.01,1.18,.01,1.78v.39l-.38-.06c-.57-.08-1.05-.11-1.48-.11-1.74,0-2.77,.61-3.35,1.99-.92,2.2,.17,3.72,2.24,5.47l.31,.26-.32,.26c-2.62,2.09-3.18,4.08-1.8,6.45l.18,.31-.32,.16c-4.89,2.42-7.22,6.38-7.1,12.11,.08,4.52,.06,9.12,.04,13.57-.01,1.96-.02,3.93-.02,5.89v1.86h-.33c-.71,0-1.4,0-2.09,0h-1.94c-1.35,0-2.39,0-3.37,.04-.55,.01-1.19,.27-1.27,.46-.08,.17,.06,.68,.33,1.12H118.94c.28-.42,.43-1,.34-1.17ZM74.41,12.17c.41-.61,1.47-.83,2.09-.83h.04c.59,0,1.27,.27,2.01,.79,.57,.4,1.05,.9,1.51,1.39l.28,.29c.11,.11,.21,.23,.31,.35,.26,.31,.5,.6,.77,.6,.13,0,.27-.05,.43-.16,.49-.3,.43-.6,.16-1.31-.06-.15-.11-.3-.16-.45l-.11-.36c-.19-.66-.4-1.33-.45-2.03-.04-.5-.04-1.44,.39-2.13,.33-.54,1.12-1.3,1.86-1.3,.74,.01,1.52,.83,1.82,1.38,.32,.59,.44,1.44,.33,2.26-.07,.51-.23,1-.39,1.47-.15,.45-.29,.88-.35,1.32-.05,.36,.12,.91,.35,1.13h.03c.25,0,.72-.18,.93-.36,.3-.25,.57-.55,.85-.87,.37-.42,.75-.86,1.24-1.17,.82-.54,1.84-.85,2.73-.85,.7,0,1.3,.33,1.6,.88,.32,.57,.27,1.28-.11,1.88-.44,.71-1.18,1.39-2.01,1.85-.66,.37-1.43,.52-2.17,.66l-.36,.07c-.43,.08-.91,.17-1.07,.41-.02,.03-.09,.13-.03,.39,.04,.19,.43,.54,1.18,.86,.34,.14,.71,.23,1.1,.32,.48,.11,.98,.23,1.43,.46,.75,.39,1.45,1.01,1.87,1.67,.44,.71,.5,1.52,.14,2.17-.27,.5-.73,.81-1.22,.81-2.52-.02-3.64-1.22-4.63-2.28-.14-.15-.27-.32-.39-.49-.3-.42-.52-.7-.81-.7-.13,0-.28,.05-.45,.15-.5,.3-.45,.57-.18,1.28,.09,.24,.18,.49,.22,.74l.06,.42c.17,1.06,.35,2.15,.26,3.23-.08,.96-.77,1.96-1.8,1.96-.12,0-.24-.02-.36-.04-.76-.17-1.65-1.03-1.9-1.83-.26-.84-.13-1.76-.01-2.65l.05-.32c.04-.33,.17-.64,.3-.93,.12-.3,.24-.57,.25-.83,.02-.35-.19-.88-.4-1.03h-.08c-.23,0-.63,.14-.81,.3-.31,.26-.58,.57-.87,.9-.36,.41-.74,.83-1.19,1.16-.72,.52-1.64,.87-2.46,.94-.08,.01-.16,.01-.24,.01-.78,0-1.43-.36-1.75-.96-.33-.62-.25-1.4,.21-2.09,.45-.66,1.17-1.27,1.91-1.61,.49-.23,1.02-.34,1.53-.45,.44-.1,.86-.19,1.25-.35,.36-.14,.76-.56,.83-.86-.06-.16-.47-.55-.78-.67-.39-.15-.81-.24-1.26-.34-.51-.11-1.03-.23-1.52-.44-.8-.35-1.49-.92-1.85-1.53-.33-.55-.55-1.68-.15-2.28ZM60.23,2.3l.17-.36,.33,.24c3.06,2.2,4.26,6.76,2.73,10.37l-.15,.35-.32-.18c-3.08-1.65-4.48-6.9-2.76-10.42Zm-21.47,24.31c0-2.66-.01-5.4,.02-8.1,.04-4.58,3.02-7.6,7.59-7.68,1.53-.03,3.11-.04,4.85-.04,1.98,0,4.11,.02,6.91,.05,.56,.01,1.14,.44,1.53,.81,.48,.44,.94,.92,1.39,1.38,.59,.6,1.19,1.21,1.82,1.76,.23,.19,.45,.3,.65,.3,.4,0,.67-.42,.79-.66,.07-.15,.14-.3,.22-.44,.25-.47,.5-.96,.56-1.43,.22-1.58,1.22-1.78,2.07-1.78,.11,0,.23,0,.35,.01,.59,.03,1.23,.05,2.01,.05,.5,0,1,0,1.52-.02,.55,0,1.11-.01,1.68-.01h.48l-.16,.45c-.84,2.35-.2,4.12,2.14,5.93l.32,.25-.3,.27c-2.45,2.18-3.14,4.01-2.16,5.74,.63,1.14,1.64,1.69,3.06,1.69,.83,0,1.81-.18,2.93-.55l.32-.1,.11,.31c.02,.08,.05,.15,.08,.23,.08,.19,.15,.39,.18,.61,.18,1.41,.87,2.53,2.1,3.42,.36,.26,.76,.75,.77,1.21,.05,1.38,.04,2.73,.04,4.16-.01,.47-.01,.95-.01,1.44v.28l-.27,.05c-.77,.16-1.38,.23-1.91,.23-1.51,0-2.59-.58-3.38-1.83l-.14-.24,.2-.19c2.52-2.4,3.12-4.05,2.06-5.71-.77-1.2-1.73-1.76-3.04-1.76-.99,0-2.04,.32-2.95,.63l-.33,.12-.1-.34c-1.04-3.49-2.11-4.79-3.97-4.79-.08,0-.16,0-.24,.01-1.93,.1-3.16,1.66-3.76,4.75l-.07,.38-.37-.12c-.93-.32-2.01-.64-3.01-.64-1.4,0-2.4,.64-3.14,2-.89,1.63-.22,3.31,2.18,5.44l.23,.21-.19,.25c-.99,1.25-2.24,1.83-3.95,1.83-.06,0-.12-.01-.17-.01-2.17-.04-4.55-.07-7.26-.07-2.43,0-4.9,.02-7.29,.04h-1.4c-.44,0-.93-.03-1.25-.36-.25-.26-.37-.63-.36-1.23,.03-2.73,.02-5.51,.02-8.19Zm31.37,12.01c.03,.09,.05,.18,.08,.27l.13,.44c.25,.83,.51,1.68,.58,2.55,.07,.91-.23,1.83-.82,2.46-.42,.46-.93,.71-1.44,.71h-.04c-1.27-.03-2.21-1.54-2.22-3.58v-.04s.01-.05,.01-.05c.03-.12,.06-.27,.11-.44,.12-.52,.29-1.22,.52-1.91,.03-.1,.07-.2,.1-.3,.27-.72,.32-1.02-.16-1.32-.15-.09-.28-.13-.39-.13-.23,0-.44,.22-.69,.49-.11,.12-.24,.26-.37,.38-1.04,.89-2.07,1.75-3.24,2.39-.31,.17-.67,.26-1.02,.26-.72,0-1.39-.39-1.77-1.03-.65-1.11-.15-2.3,.72-2.82,1.24-.73,2.63-1.21,3.95-1.63,.12-.03,.24-.07,.36-.1,.67-.17,.88-.27,.87-.76,0-.5-.23-.59-.92-.75-.11-.03-.23-.06-.34-.09-1.3-.36-2.56-.74-3.68-1.39-.6-.36-1.03-.9-1.18-1.5-.14-.54-.05-1.09,.26-1.59,.38-.65,1.01-1,1.76-1,.43,0,.88,.12,1.28,.36,1,.57,1.86,1.36,2.7,2.13l.26,.24c.11,.1,.21,.21,.31,.32,.25,.26,.46,.49,.7,.49,.11,0,.23-.04,.36-.11,.45-.26,.43-.53,.24-1.23-.03-.1-.05-.19-.08-.32-.3-1.21-.6-2.47-.6-3.73-.01-1.07,.62-2.27,2.01-2.38h.18c1.3,0,2.02,1.09,2.05,2.16,.04,1.22-.22,2.45-.47,3.64l-.05,.23c-.03,.14-.07,.29-.11,.43-.17,.59-.23,.86,.19,1.13,.15,.1,.29,.15,.4,.15,.24,0,.45-.23,.7-.49,.12-.12,.23-.24,.36-.35,1.01-.86,2.04-1.75,3.22-2.41,.32-.17,.67-.27,1.01-.27,.71,0,1.36,.38,1.77,1.04,.29,.45,.38,.96,.26,1.46-.11,.51-.44,.97-.89,1.25-1.34,.83-2.87,1.38-3.91,1.71-.15,.05-.3,.09-.45,.12-.7,.17-.92,.27-.91,.77s.25,.59,.95,.74c.15,.04,.31,.07,.46,.11,1.16,.34,2.49,.77,3.64,1.47,.89,.55,1.55,1.68,.9,2.87-.39,.71-1.06,1.12-1.83,1.12-.39,0-.8-.11-1.17-.31-.99-.54-1.87-1.3-2.71-2.04l-.39-.33c-.13-.12-.25-.24-.36-.37-.27-.29-.45-.47-.66-.47-.1,0-.22,.04-.34,.11-.46,.27-.42,.54-.19,1.24Zm-43.82,1.9c1.33-1.66,3.35-2.59,5.67-2.61,3.13-.03,6.53-.04,10.67-.04,2.47,0,4.93,.01,7.39,.01,2.28,0,4.55,.01,6.83,.01,.15,0,.29,.03,.41,.06,.04,0,.09,.02,.13,.03l.23,.04,.04,.24c.49,2.94,1.19,3.7,3.41,3.7,.79,0,1.79-.1,3.24-.34l.31-.05,.07,.31c.74,3.2,1.98,4.69,3.96,4.69,1.96-.01,3.27-1.52,3.89-4.47l.05-.26h.28c.5,0,1.01,.02,1.5,.05,.49,.03,.96,.05,1.42,.05,.67,0,1.2-.05,1.67-.17,1.85-.44,2.12-2.3,2.12-3.36v-.34s.33,0,.33,0c1.14,0,2.28-.02,3.39-.04,1.1-.03,2.24-.05,3.35-.05,1.72,0,3.12,.06,4.43,.17,2.9,.25,5.51,3.07,5.57,6.04,.1,4.86,.08,9.82,.06,14.62-.01,1.97-.01,3.96-.01,5.95v.34h-24.73v-.34c0-.53,.01-1.05,.02-1.57,.01-1.18,.03-2.3-.04-3.43-.09-1.54-.46-1.67-.87-1.67-.3,0-.71,.1-1.26,.32-2.85,1.08-4.86,2.96-5.98,5.6-.36,.85-.86,1.22-1.62,1.22-.11,0-.22,0-.34-.02-.12,0-.25-.02-.4-.02-.18,0-.37,.01-.55,.02-.2,.01-.39,.02-.57,.02-.96,0-1.95-.19-2.73-1.53-.45-.79-1.27-1.22-2.29-1.22-.89,0-1.86,.33-2.73,.94-.31,.21-.6,.47-.9,.75-.15,.14-.31,.28-.48,.42l-.29,.25-.21-.32c-1.04-1.57-2.27-3.02-4.21-3.02-.25,0-.52,.02-.8,.07-1.4,.26-2.25,1.28-2.7,3.21l-.06,.26h-3.86l.11-.42c.57-2.18-.18-3.96-2.3-5.44l-.32-.22,.27-.28c2.92-3.09,2.94-4.59,2.04-6.01-.65-1.02-1.62-1.52-2.96-1.52-.87,0-1.91,.21-3.09,.63l-.39,.14-.05-.41c-.24-1.74-.7-3.46-2.44-4.34-.52-.27-1.04-.4-1.53-.4-1.02,0-1.99,.55-2.96,1.69l-.45,.52-.14-.67c-.66-3.07-.16-5.84,1.4-7.79Zm43.42,24.6c-1.08,2.25-2.92,3.98-4.8,4.52l-.35,.1-.08-.36c-.74-3.5,1.64-7.64,5.3-9.24l.32-.13,.13,.32c.53,1.27,.34,3.02-.52,4.79Zm-16.93,10.05c.04,.37,.08,.73,.23,.97,.24,.41,.56,.76,.89,1.14,.28,.32,.57,.65,.82,1.01,.78,1.14,.86,2.4,.22,3.46-.28,.46-1.03,.86-1.6,.86-.06,0-.12,0-.18-.01-1.24-.22-2.13-1.12-2.45-2.46-.11-.48-.17-.98-.23-1.45-.06-.53-.12-1.03-.25-1.51-.06-.26-.28-.51-.51-.78-.04-.05-.08-.1-.12-.15-.06,.05-.12,.09-.18,.13-.31,.21-.61,.4-.76,.65-.21,.35-.33,.76-.45,1.2-.07,.25-.15,.5-.24,.75-.15,.4-.33,.76-.53,1.08-.64,.99-1.74,1.65-2.73,1.65-.41,0-.78-.12-1.07-.33-.43-.32-.7-.83-.76-1.46-.08-.89,.27-1.84,.93-2.55,.61-.65,1.34-1.19,2.04-1.71l.41-.31c.25-.19,.51-.38,.64-.58,.09-.14,.11-.26-.04-.47-.16-.22-.75-.37-1.47-.38-.36,0-.72,.08-1.1,.17-.3,.07-.62,.14-.94,.17-.15,.02-.3,.02-.46,.02-.39,0-.79-.04-1.15-.14-1.5-.38-2.48-1.49-2.29-2.58,.19-1.13,1.54-1.85,3.42-1.85h.12l.06,.02c.17,.07,.37,.15,.6,.25,.64,.27,1.45,.6,2.29,.85,.21,.06,.47,.1,.7,.1,.3,0,.54-.06,.65-.15,.19-.16,.19-.29,.2-.33,.01-.28-.31-.64-.55-.89l-.29-.3c-.97-.99-2.08-2.11-1.99-3.77,.05-.79,.51-1.85,1.17-2.2,.14-.07,.31-.1,.5-.1,.58,0,1.4,.34,1.84,.76,.64,.61,.99,1.56,1.22,2.32,.24,.77,.26,1.6,.27,2.34,.02,.92,.26,1.11,.7,1.15h.1c.41,0,.6-.24,.84-1.03,.27-.94,.61-1.82,1.01-2.63,.6-1.25,1.66-1.96,2.9-1.96h.09c.58,0,1.37,.62,1.58,1.2,.42,1.19,.05,2.41-1.05,3.42-.33,.31-.7,.58-1.06,.84-.4,.29-.77,.56-1.09,.88-.2,.19-.33,.5-.46,.83-.02,.06-.04,.12-.07,.17,.06,.03,.11,.05,.17,.08,.31,.15,.61,.3,.88,.3,.35-.01,.7-.09,1.08-.18,.4-.09,.82-.19,1.24-.19h.04c1.15,.02,1.96,.19,2.57,.56,.64,.39,1.31,1.39,1.2,2.09-.11,.73-1.08,1.44-1.73,1.67-.29,.1-.62,.15-.99,.15-.41,0-.88-.06-1.41-.19-.42-.09-.81-.28-1.18-.46-.36-.17-.69-.33-1.03-.41-.1-.03-.21-.04-.33-.04-.22,0-.46,.04-.71,.07-.06,.01-.13,.02-.19,.03,0,.07,.01,.14,.02,.21Zm-33.52-12.81c.32-.85,1.02-1.56,1.87-1.91,.54-.22,1.1-.35,1.65-.48,.52-.12,1.02-.24,1.49-.42,.24-.1,.46-.37,.7-.65,.04-.06,.09-.11,.13-.17-.04-.04-.08-.08-.13-.12-.25-.24-.48-.47-.73-.56-.45-.16-.92-.26-1.41-.37-.5-.11-1.01-.22-1.51-.4-1.3-.47-2.11-1.49-2.24-2.8-.06-.57,.41-1.4,.92-1.65,.45-.22,.92-.33,1.39-.33,.76,0,1.5,.29,2.16,.83,.38,.3,.71,.66,1.04,1.01,.33,.37,.66,.71,1.02,1,.23,.18,.58,.26,.95,.35,.07,.02,.13,.03,.2,.05,.02-.06,.04-.13,.05-.19,.11-.37,.21-.71,.17-1.01-.05-.41-.19-.82-.34-1.25-.1-.29-.2-.58-.27-.88-.11-.41-.15-.86-.13-1.35,.06-1.49,1.04-2.81,2.14-2.89h.1c1.03,0,2.2,1.18,2.21,2.75,.02,1.04-.25,2.08-.52,3.08l-.05,.2c-.04,.17-.1,.33-.16,.49-.25,.7-.29,.97,.21,1.23,.14,.08,.27,.12,.39,.12,.32,0,.58-.34,.87-.69,.08-.11,.16-.21,.25-.31,1.04-1.18,2.11-2.4,3.96-2.4h.16c.9,.03,1.6,.41,1.92,1.03,.29,.57,.2,1.29-.25,1.97-.47,.7-1.21,1.35-1.98,1.72-.82,.39-1.73,.55-2.62,.7l-.26,.05c-.45,.08-.75,.22-.86,.39-.04,.06-.08,.16-.03,.35,.07,.27,.55,.66,1.06,.86,.37,.14,.77,.22,1.19,.3,.54,.11,1.11,.23,1.61,.49,.77,.4,1.51,1.1,1.98,1.89,.36,.6,.39,1.27,.09,1.8-.3,.53-.88,.84-1.58,.84h-.01c-.93-.01-1.96-.31-2.74-.79-.47-.31-.85-.74-1.21-1.15-.29-.33-.56-.64-.88-.88-.21-.17-.59-.29-.91-.29-.09,0-.17,.01-.23,.03-.11,.12-.23,.66-.18,1.02,.08,.52,.25,1.02,.43,1.56,.09,.27,.18,.53,.26,.8,.08,.27,.12,.54,.14,.82,.06,.99-.3,2.02-.93,2.69-.4,.42-.88,.66-1.36,.66-.45,0-.88-.2-1.24-.56-.66-.66-1.02-1.82-1.01-3.17v-.09c.05-.14,.11-.32,.18-.52,.18-.56,.44-1.32,.58-2.09,.05-.29-.05-.63-.15-.99-.02-.07-.03-.13-.05-.2-.07,.02-.14,.03-.2,.05-.37,.09-.73,.18-.97,.36-.37,.28-.7,.62-1.05,.98-.39,.4-.8,.82-1.26,1.15-.59,.42-1.31,.65-2.02,.65-.91,0-1.68-.39-1.99-1.02-.24-.48-.24-1.08-.01-1.69Zm89.53,29.8c-.01,1.98-.01,3.97-.01,5.95,0,.22-.03,.42-.07,.64-.01,.1-.03,.21-.04,.33l-.03,.3H12.71l-.02-.32c0-.13-.02-.25-.03-.37-.02-.27-.04-.52-.04-.78v-5.22c-.01-5.16-.02-10.5,0-15.75,.03-5.81,4.37-10.19,10.11-10.19,.53,0,1.07,.04,1.61,.11l.21,.03,.07,.2c.04,.13,.08,.26,.13,.39,.09,.29,.19,.59,.3,.87,.65,1.59,1.95,2.58,3.39,2.59,1.55,0,2.89-1.03,3.32-2.55,.4-1.39,1.16-1.68,2.25-1.68,.08,0,.16,.01,.24,.01,.91,.03,1.87,.04,3.14,.04,.54,0,1.09,0,1.63-.01h2.92c.43,.01,.88,.17,1.37,.49l.7,.45-1.12,.21c-2.52,.48-4.91,.92-5,3.95-.07,2.34,1.51,3.27,4.27,4.09l.42,.12-.22,.37c-1.01,1.71-1.26,3.04-.83,4.32,.22,.69,.69,1.36,1.2,1.77,.59,.45,1.18,.67,1.81,.67,1.08,0,2.37-.65,4.03-2.05l.27-.22,.21,.27c1.68,2.12,3.01,3.07,4.31,3.07,.42,0,.85-.1,1.3-.31,1.8-.82,2.38-2.77,1.7-5.78l-.08-.36,.37-.05c2.91-.37,4.99-.86,5.21-3.79,.15-1.87-1.1-3.1-4.17-4.1l-.32-.1,.11-.32c.62-1.91,1.18-2.75,2.79-2.75,.51,0,1.13,.07,2.08,.26l.26,.05,.02,.25c.03,.38,.05,.75,.07,1.13,.06,.86,.11,1.67,.23,2.49,.12,.85,.46,.97,.82,.97,.18,0,.4-.04,.65-.12,2.28-.7,4.12-2.01,5.47-3.91,.49-.7,1.05-.99,1.93-.99,2.95,0,5.89,0,8.83,0h7.1c3.62,0,7.24,0,10.86,.02,5.83,.02,10.12,4.24,10.19,10.02,.06,5.1,.04,10.27,.03,15.28Z"/><path class="cls-1" d="M4.89,70.11c-1.19,0-2.36-.2-3.47-.59-.85-.3-1.28-.57-1.39-.86-.1-.29,.06-.76,.52-1.51,1.5-2.44,3.42-3.78,7.34-5.09l.68-.23-.61-.38c-2.89-1.8-4.64-4.17-5.34-7.25-.2-.89-.2-1.41,0-1.67,.19-.24,.64-.35,1.41-.35,.07,0,.14,0,.22,0,5.29,.12,9.82,4.07,10.53,9.17,.23,1.64-.05,2.99-.86,4.1-2.1,2.91-5.48,4.64-9.03,4.64Zm4.81-6.56c-3.2,0-6.33,1.73-7.46,4.12l-.16,.34,.35,.13c.82,.3,1.71,.45,2.63,.45,2.97,0,5.91-1.59,7.5-4.06l.23-.35-.39-.15c-.82-.31-1.73-.47-2.69-.47Zm-4.75-9.65c-.08,0-.16,0-.25,0h-.35s.02,.36,.02,.36c.22,3.12,4.33,6.82,7.59,6.82h0c.27,0,.53-.03,.78-.08l.35-.07-.09-.35c-1.02-3.81-4.48-6.69-8.06-6.69Z"/><path class="cls-1" d="M100.2,36.14c-4.16,0-8.1-2.46-9.82-6.13-.3-.63-.39-1.04-.28-1.27,.1-.22,.44-.4,1.06-.57,.76-.21,1.54-.34,2.22-.46,.25-.04,.49-.08,.7-.13,4.87,.29,8.21,2.36,10.2,6.32,.26,.52,.34,.86,.26,1.07-.09,.22-.4,.41-.99,.61-1.07,.37-2.2,.55-3.35,.55Zm-5.56-6.97c-.78,0-1.5,.12-2.14,.37l-.33,.13,.14,.33c1.19,2.68,4.39,4.55,7.8,4.55h0c.67,0,1.33-.07,1.95-.22l.37-.09-.13-.36c-.94-2.59-4.38-4.7-7.66-4.7Z"/><path class="cls-1" d="M72.19,93.16c-.61,0-1.19-.12-1.63-.33-1.75-.83-2.2-2.68-1.43-5.82l.09-.38-.4-.03c-1.63-.13-3.31-.38-4.36-1.76-.4-.53-.68-1.3-.74-2.02-.14-1.87,1.27-3.2,4.31-4.07l.34-.1-.12-.34c-1.36-3.86-.78-5.19,.62-6.08,.62-.39,1.21-.59,1.82-.59,1.16,0,2.46,.7,4.08,2.2l.29,.27,.22-.32c1.37-1.99,2.72-2.96,4.14-2.96,.4,0,.82,.08,1.24,.24,1.56,.6,2.41,1.82,1.81,6.05l-.05,.33,.33,.05c3.31,.47,4.8,1.53,4.99,3.54,.19,2.06-1.13,3.4-4.28,4.36l-.35,.11,.13,.34c1.31,3.31,1.14,5.04-.62,6.16-.57,.36-1.14,.54-1.75,.54-1.23,0-2.57-.74-4.13-2.27l-.29-.29-.23,.34c-.82,1.26-1.85,2.61-3.57,2.8-.16,.02-.32,.03-.49,.03Zm.83-9.05c.04,.16-.07,.7-.26,.99-.19,.29-.45,.55-.72,.83-.33,.34-.67,.68-.91,1.11-.48,.88-.78,1.84-.84,2.71-.04,.63,.5,1.54,1.07,1.8,.17,.08,.39,.12,.63,.12,.45,0,1.06-.15,1.42-.48,.66-.61,1.2-1.44,1.5-2.29,.19-.54,.26-1.11,.32-1.66,.06-.46,.11-.9,.23-1.32,.07-.25,.46-.6,.72-.65,.09,0,.41,.2,.71,.57,.05,.06,.07,.21,.09,.35,.02,.17,.05,.36,.13,.53,.13,.28,.25,.56,.36,.84,.35,.84,.72,1.71,1.27,2.45,.5,.67,1.2,1.06,1.9,1.06,.4,0,.78-.12,1.13-.37,1.28-.87,1.04-2.25,.45-3.17-.64-1-1.56-1.81-2.44-2.59-.13-.12-.27-.22-.4-.32-.6-.46-.79-.66-.55-1.16,.16-.32,.33-.39,.54-.39,.18,0,.4,.05,.62,.11,.2,.05,.4,.1,.61,.13l.28,.03c.73,.08,1.48,.16,2.22,.16,.42,0,.8-.03,1.16-.08,1.14-.17,2.2-1.04,2.01-2.37-.16-1.14-1.07-1.87-2.32-1.87-.11,0-.21,0-.32,.02-.76,.08-1.51,.31-2.23,.53-.5,.15-1.02,.32-1.54,.42-.08,.02-.17,.03-.27,.03-.24,0-.49-.04-.76-.09-.07-.01-.14-.02-.2-.04,0-.07,.02-.14,.03-.21,.05-.37,.09-.73,.25-.97,.25-.39,.56-.75,.89-1.12,.34-.39,.69-.79,.98-1.25,.51-.82,.67-1.87,.43-2.74-.17-.59-.51-1.04-.96-1.27-.23-.12-.49-.18-.77-.18-1.17,0-2.36,.99-2.77,2.31-.27,.87-.38,1.79-.49,2.68l-.06,.47c-.11,.9-.31,1.08-.59,1.08-.04,0-.08,0-.13-.01-.25-.04-.67-.51-.91-1.03-.2-.42-.34-.87-.49-1.35-.17-.54-.34-1.09-.6-1.6-.54-1.05-1.66-1.78-2.72-1.78-.39,0-.74,.1-1.03,.29-.44,.29-.72,.8-.8,1.43-.12,.9,.2,1.87,.83,2.59,.37,.42,.82,.78,1.25,1.12,.4,.32,.78,.62,1.1,.97,.19,.21,.29,.55,.4,.91,.02,.07,.04,.14,.06,.21-.06,.02-.12,.05-.18,.07-.3,.12-.59,.23-.84,.23-.02,0-.04,0-.07,0-.64-.06-1.29-.22-1.98-.39-.31-.08-.63-.15-.97-.23l-.1-.02-.09,.04c-.18,.07-.37,.13-.57,.19-.47,.15-1.01,.32-1.47,.61-.76,.48-1.16,1.19-1.09,1.89,.07,.71,.59,1.29,1.42,1.59,.49,.18,1.07,.28,1.67,.28,.32,0,.64-.03,.95-.08,.51-.09,.99-.3,1.45-.51,.4-.18,.77-.34,1.16-.43,.08-.02,.18-.03,.29-.03,.34,0,.7,.1,.88,.25Z"/><path class="cls-1" d="M62.3,22.83c-4.99-.01-9.19-2.89-10.68-7.33-.23-.7-.28-1.1-.15-1.32,.13-.22,.49-.37,1.19-.49,.62-.11,1.24-.17,1.87-.17,4.51,0,8.59,2.83,10.16,7.04,.33,.88,.4,1.36,.26,1.61-.15,.25-.59,.41-1.49,.55-.36,.06-.73,.08-.97,.1-.07,0-.13,0-.18,.01Zm-7.38-7.74c-.41,0-.81,.04-1.19,.11l-.35,.07,.09,.35c.77,3.01,4.48,5.66,7.95,5.66,.45,0,.89-.05,1.3-.14l.37-.08-.12-.36c-1.09-3.14-4.62-5.6-8.04-5.6Z"/><path class="cls-1" d="M83.5,18.83c-.37,0-.74-.16-1.01-.44-.26-.27-.39-.61-.37-.96,.04-.71,.66-1.29,1.38-1.29,.77,.02,1.37,.63,1.36,1.36,0,.74-.6,1.32-1.35,1.33h-.01Z"/><path class="cls-1" d="M28.45,60.21c-.35,0-.67-.15-.92-.41-.26-.27-.4-.61-.39-.98,.01-.73,.62-1.35,1.33-1.35,.75,.02,1.35,.65,1.34,1.39,0,.73-.62,1.34-1.34,1.34h-.02Z"/><path class="cls-1" d="M68.72,35.76c-.79,0-1.2-.41-1.25-1.25-.02-.3,.1-.59,.32-.83,.29-.31,.71-.49,1.15-.49,.71,.06,1.07,.47,1.08,1.25,0,.37-.12,.7-.36,.94-.24,.24-.57,.38-.94,.38h0Z"/><path class="cls-1" d="M49.95,74.19c-.74,0-1.32-.55-1.35-1.27-.03-.75,.51-1.35,1.27-1.39,.03,0,.06,0,.09,0,.77,0,1.33,.56,1.34,1.32,0,.76-.54,1.32-1.31,1.34h-.04Z"/><path class="cls-1" d="M75.75,83.44c-.73-.01-1.31-.63-1.3-1.39,.01-.75,.59-1.34,1.32-1.34,.76,.01,1.33,.62,1.32,1.38,0,.73-.61,1.35-1.32,1.35h-.02Z"/></g></g></svg>