<?xml version="1.0" encoding="UTF-8"?><svg id="Capa_2" xmlns="http://www.w3.org/2000/svg" viewBox="0 0 116.46 101.33"><defs><style>.cls-1{fill:#5d184c;}</style></defs><g id="Capa_1-2"><g><path class="cls-1" d="M116.43,100.12c-.09-.19-.72-.34-1.06-.42l-.17-.04c-.11-.03-.24-.04-.4-.04-.12,0-.25,.01-.37,.02-.14,0-.28,.01-.41,.01h-6.51v-7.78c0-4.34,0-8.82-.01-13.24-.02-5.81-3.55-10.38-8.99-11.63-.53-.12-1.09-.19-1.67-.27-.3-.03-.6-.07-.92-.12l-.29-.04v-6.25c0-3.44,.01-6.88,0-10.32-.02-5.78-3.77-9.53-9.54-9.54-1.61,0-3.22,0-4.84,0h-8.03c-.31,0-.62-.02-.93-.04-.14-.01-.28-.02-.41-.03l-.32-.02v-2.17l.61-.12c.23-.05,.44-.09,.66-.14,.68-.15,1.37-.3,2.06-.45,1.62-.34,3.29-.7,4.91-1.12,.73-.19,1.11-.38,1.23-.62,.13-.26,.04-.7-.29-1.5l-2.58-6.23c-1.34-3.24-2.68-6.48-4.01-9.71-.12-.28-.21-.57-.31-.87-.05-.14-.1-.29-.15-.45l-.13-.37,.73-.13c.17-.03,.3-.05,.43-.08,.85-.17,1.44-.35,1.59-.62,.15-.28-.04-.87-.4-1.73l-.39-.97c-.78-1.89-1.55-3.79-2.31-5.68l-.06-.14c-.15-.35-.31-.74-.23-1.13,.58-2.97-.54-4.98-3.41-6.13h-1.88l-.3,.13c-.25,.11-.51,.23-.76,.35-1.78,.86-2.85,2.66-2.49,4.2,.4,1.74-.17,3.09-.72,4.4-.41,.97-.8,1.95-1.19,2.92-.22,.55-.44,1.09-.66,1.63-.46,1.12-.76,1.85-.62,2.13,.15,.28,.95,.46,2.16,.73,.11,.03,.19,.08,.27,.13,.02,.02,.05,.04,.09,.07l.24,.14-.22,.58c-.08,.25-.17,.49-.27,.73l-2.81,6.69c-1.33,3.19-2.67,6.39-4,9.58-.29,.68-.36,1.07-.25,1.3,.11,.22,.44,.39,1.07,.57,2.31,.63,4.61,1.17,6.83,1.59,.8,.16,1.29,.25,1.52,.63,.23,.37,.1,.86-.13,1.64l-.07,.24h-13.47v-11.05l.22-.08c3.49-1.31,4.5-2.77,4.5-6.52v-3.91c0-3.89-.94-5.26-4.59-6.66l-.21-.09v-.74c.01-.38,.01-.78,0-1.18-.04-1.17-.56-1.17-.76-1.17s-.47,.06-.77,.18c-1.07,.43-2.03,.83-2.97,1.3-.47,.23-.9,.35-1.32,.35s-.82-.11-1.24-.32c-1.13-.57-2.32-1.03-3.33-1.42-.2-.07-.39-.11-.55-.11-.15,0-.63,0-.72,.93-.03,.33-.03,.69-.01,1.09,.04,.69-.12,1.21-1.02,1.52-2.51,.86-3.75,2.59-3.79,5.29-.01,.45-.02,.9-.03,1.35-.04,1.54-.08,3.13,.08,4.66,.15,1.33,.64,2.63,1.3,3.48,.49,.64,1.26,1.09,2.07,1.58,.39,.23,.79,.47,1.18,.73l.15,.1v10.75h-9.5c-6.07,.01-9.7,3.65-9.71,9.74v16.38l-.29,.04c-.34,.06-.66,.1-.97,.14-.62,.08-1.15,.15-1.68,.28-5.41,1.27-8.92,5.8-8.95,11.53-.02,4.42-.02,8.91-.01,13.26v7.8h-1.84c-.53,0-1.06,0-1.59-.01h-1.58c-1.07,0-1.93,.01-2.71,.04-.52,.02-1.1,.25-1.17,.37-.1,.3,.07,.92,.36,1.32H116.07s.01-.02,.02-.03c.29-.38,.44-1,.34-1.18ZM74.3,14.37l-.52,.73-.27-.17c-.09-.06-.19-.11-.29-.17-.27-.13-.57-.29-.74-.57-.35-.57-.57-1.22-.77-1.79-.32-.94-.71-1.32-1.37-1.32-.12,0-.24,.02-.38,.04l-.27,.05-.1-.27c-.62-1.68,.51-2.13,1.33-2.45,.15-.06,.3-.12,.45-.18l.31-.15,2.62,6.25Zm-5.73-12.71h.08c1.59,.04,2.85,1.38,2.82,2.98-.03,1.57-1.33,2.84-2.89,2.84h-.08c-1.59-.04-2.87-1.38-2.83-2.98,.04-1.57,1.34-2.84,2.9-2.84Zm-5.49,13.05l-.27-.14,2.64-6.43,.32,.14c.16,.07,.33,.13,.49,.19,.79,.29,1.87,.68,1.36,2.33l-.07,.26-.28-.03c-.08,0-.16-.01-.24-.01-1.07,0-1.36,.68-1.75,1.8-.11,.32-.23,.66-.38,.96-.04,.08-.07,.17-.11,.25-.16,.38-.37,.9-.98,.9-.21,0-.45-.07-.73-.22Zm-4.81,20.27l-.35-.11,3.94-9.48c.41-1.01,.83-2.02,1.25-3.03,1.18-2.81,2.4-5.73,3.55-8.61,.37-.95,1.03-1.02,1.61-1.02h.58c.5,0,1.25,0,1.65,.99,2,4.9,4.06,9.86,6.05,14.67,.79,1.9,1.58,3.8,2.37,5.7,.05,.12,.06,.24,.06,.37,.01,.05,.01,.11,.02,.19l.04,.27-.27,.09c-3.37,1.05-6.79,1.59-10.16,1.59s-6.88-.55-10.34-1.62Zm11.53,3.25v2.12h-2.52v-2.12h2.52ZM50.06,11.01v3.41l-4.07-1.66,4.07-1.75Zm-8.23,.03l4.05,1.65-4.05,1.74v-3.39Zm-2.12,16.3c-1.72-.42-2.69-1.55-2.75-3.18-.1-2.65-.09-4.83,.01-6.84,.08-1.54,.98-2.69,2.46-3.15l.19-.06,.14,.13s.06,.06,.09,.08c.08,.07,.21,.17,.23,.35,.16,1.61,.4,1.92,.75,1.92,.4,0,1.08-.34,1.55-.61,1.31-.72,2.52-1.07,3.7-1.07s2.37,.37,3.55,1.13c.14,.09,.31,.15,.49,.22l.14,.05c.32,.12,.6,.19,.81,.19,.23,0,.67,0,.73-1.15,.01-.19,.03-.39,.05-.58l.05-.69,.39,.11c1.68,.44,2.64,1.62,2.7,3.31,.08,2.47,.08,4.62-.01,6.58-.08,1.67-1.01,2.81-2.75,3.38l-.45,.15v-3.65c0-1.13,0-2.26,.01-3.38,0-1-.07-1.41-.79-1.43h-.05c-.26,0-.44,.06-.56,.17-.22,.22-.21,.7-.21,1.17v19.85h-3.44v-4.61c0-1.4,0-2.8,0-4.2v-.38c.02-.46,.03-.94-.19-1.16-.12-.13-.33-.19-.63-.19h-.01c-.28,0-.47,.06-.59,.18-.2,.21-.19,.67-.17,1.11v.37c-.01,1.68-.01,3.4-.01,5.06v3.82s-3.31,0-3.31,0v-14.56h4.13c.43,0,.73-.08,.89-.24,.12-.13,.18-.32,.18-.6-.01-.46-.18-.75-1.05-.75h-4.27v-1.5c0-.85,0-1.65,0-2.46,.01-.44-.07-.74-.23-.9-.12-.12-.31-.18-.56-.18h-.05c-.46,.01-.75,.19-.75,1.06,.01,1.62,.01,3.25,.01,4.88v2.35l-.42-.1Zm-17.21,23.01c.02-5.31,2.85-8.23,7.97-8.23h55.51c5.1,0,7.88,2.75,8.03,7.96,.05,1.77-.54,3.14-1.92,4.43-2.28,2.15-5.26,3.33-8.39,3.33-5.27,0-9.97-3.31-11.68-8.23-.03-.11-.06-.23-.09-.34-.03-.15-.06-.31-.12-.38l-.12-.13c-.19-.22-.58-.67-.76-.67-.15,0-.46,.36-.64,.57-.08,.1-.17,.2-.24,.28-.03,.03-.06,.16-.08,.24s-.03,.15-.06,.23c-1.64,4.99-6.23,8.39-11.42,8.44h-.14c-5.36,0-9.96-3.22-11.72-8.2-.02-.07-.04-.14-.05-.22-.01-.05-.03-.13-.04-.15-.29-.34-.6-.68-.9-1l-.1-.12c-.07,.06-.14,.12-.21,.18-.31,.27-.61,.52-.7,.8-.91,2.57-2.29,4.56-4.21,6.08-1.07,.84-2.29,1.5-3.57,1.95-1.29,.45-2.66,.68-4.03,.68-3.11,0-6.07-1.16-8.34-3.26-1.33-1.24-2.49-2.49-1.98-4.24Zm71.41,4.8v11.44H22.57v-11.49l.56,.5c2.91,2.58,6.12,3.89,9.57,3.89,.78,0,1.58-.07,2.39-.2,4.37-.72,7.77-3.18,10.12-7.32l.29-.51,.3,.5c2.93,4.96,7.1,7.48,12.43,7.49,5.29,0,9.45-2.49,12.37-7.41l.29-.5,.29,.51c2.63,4.63,7.26,7.39,12.38,7.39,3.56,0,6.95-1.31,9.79-3.8l.56-.49ZM10.64,79.06c.01-1.03,.03-2.1,.25-3.12,.93-4.33,4.6-7.37,9.13-7.56,.22-.01,.43-.02,.65-.02H60.02c11.9,0,23.8,0,35.71,.01,4.76,0,8.42,2.56,9.53,6.67,.45,1.63,.47,3.38,.5,5.08,0,.61,.02,1.24,.05,1.85,.02,.44-.32,.86-.6,1.2-3.46,4.29-7.78,6.46-12.83,6.46-.81,0-1.65-.06-2.49-.17-6.47-.86-11.01-4.52-13.49-10.87-.05-.12-.06-.24-.07-.33-.01-.03-.01-.06-.02-.09l-.03-.2,.15-.12c1.27-1.07,1.97-2.21,2.02-3.28,.04-.8-.29-1.55-.96-2.24-.62-.62-1.45-.96-2.35-.96s-1.78,.36-2.38,1c-.63,.67-.94,1.47-.89,2.29,.08,1.07,.77,2.18,1.94,3.12l.16,.13-.04,.2c-1.08,5.73-7.99,11.21-14.5,11.5-.28,.02-.56,.02-.84,.02-7.64,0-14.11-4.57-16.1-11.36l-.05-.2,.14-.14c1.31-1.31,1.99-2.59,1.95-3.68-.02-.74-.37-1.43-1.04-2.03-.6-.53-1.37-.83-2.19-.83-.99,0-1.9,.43-2.51,1.16-.58,.69-.83,1.44-.75,2.23,.11,1.05,.81,2.11,2.03,3.08l.19,.15-.08,.23c-2.01,5.64-5.82,9.26-11.32,10.75-1.65,.45-3.27,.67-4.82,.67-4.69,0-8.88-2.03-12.46-6.03-.77-.86-1.09-1.73-1-2.76,.04-.59,.05-1.21,.06-1.81Zm65.27-3.09c-.13,.14-.26,.27-.36,.41l-.1,.14-.9-.02-.1-.14c-.1-.14-.22-.28-.34-.43-.3-.36-.61-.74-.68-1.2-.07-.45,.04-.88,.31-1.19,.3-.35,.75-.53,1.27-.53h.06c.54,0,1,.22,1.3,.58,.26,.33,.37,.76,.28,1.2-.08,.46-.41,.83-.74,1.18Zm-33.69-.05c-.12,.15-.24,.29-.33,.42l-.1,.15-.93,.02-.11-.15c-.1-.13-.21-.26-.34-.41-.3-.34-.62-.7-.71-1.15-.1-.46,0-.9,.26-1.22,.29-.36,.75-.57,1.3-.57h.03c.54,0,1,.19,1.3,.53,.26,.32,.37,.74,.3,1.19-.07,.46-.38,.83-.67,1.19Zm63.67,23.55H10.67v-14.19l.57,.53c3.93,3.66,8.29,5.52,12.96,5.52,1.06,0,2.15-.09,3.25-.28,6.01-1.02,10.58-4.48,13.58-10.29l.29-.56,.31,.55c3.79,6.95,9.4,10.47,16.66,10.47s12.84-3.52,16.62-10.45l.31-.57,.29,.58c3.16,6.49,9.54,10.51,16.63,10.51,4.85,0,9.53-1.94,13.18-5.47l.57-.56v14.21Z"/><path class="cls-1" d="M45.88,9.44c-1.78,0-3.41-1.06-4.14-2.7-1-2.25-.04-4.86,2.2-5.94,.23-.11,.45-.23,.68-.34l.24-.12h2.11c1.54,.75,2.67,1.56,3.18,3.03,.81,2.31-.38,4.9-2.64,5.77-.53,.2-1.08,.31-1.63,.31Zm0-7.45c-1.55,0-2.89,1.31-2.92,2.86-.02,.76,.29,1.51,.84,2.08,.56,.57,1.32,.9,2.09,.9h.04c1.58-.02,2.86-1.33,2.85-2.92,0-1.59-1.29-2.9-2.87-2.91h-.02Z"/></g></g></svg>